<?xml version="1.0" standalone="no"?><!DOCTYPE svg PUBLIC "-//W3C//DTD SVG 1.1//EN" "http://www.w3.org/Graphics/SVG/1.1/DTD/svg11.dtd"><svg t="1517359808108" class="icon" style="" viewBox="0 0 1024 1024" version="1.1" xmlns="http://www.w3.org/2000/svg" p-id="1390" data-spm-anchor-id="a313x.7781069.0.i0" xmlns:xlink="http://www.w3.org/1999/xlink" width="64" height="64"><defs><style type="text/css"></style></defs><path d="M609.170389 9.402235C331.593392-44.263333 63.068196 137.252288 9.402628 414.829285s127.84903 546.102193 405.426027 599.768783c145.673472 28.164683 288.849824-8.45053 399.789614-89.724502 2.60858 1.446938 5.483028 2.519616 8.571193 3.116798 15.731238 3.041127 30.950168-7.245941 33.991295-22.977179 3.041127-15.731238-7.245941-30.950168-22.977179-33.991295-15.731238-3.041127-30.950168 7.245941-33.991295 22.977179-1.021549 5.284649-0.533782 10.508966 1.154483 15.235291-110.145252 80.273897-247.982759 111.322232-382.655408 85.284497-65.148022-12.596034-125.871377-37.567227-180.481801-74.221297-52.756502-35.409601-97.634091-80.180843-133.385231-133.07028C69.091142 734.336821 44.274357 676.006282 31.081141 613.85235 17.424701 549.514204 16.885806 483.858987 29.48184 418.710966c12.596034-65.148022 37.567227-125.871377 74.221297-180.481801 35.409601-52.757524 80.180843-97.634091 133.07028-133.386254 52.888414-35.75114 111.219975-60.567925 173.373907-73.76114 64.338145-13.656441 129.99234-14.195336 195.141384-1.599302 65.148022 12.596034 125.871377 37.567227 180.481801 74.221297 52.756502 35.409601 97.634091 80.180843 133.386254 133.07028 35.75114 52.888414 60.567925 111.219975 73.76114 173.373907 13.656441 64.338145 14.195336 129.99234 1.599302 195.141384-12.118493 62.680557-35.740914 121.359792-70.20975 174.407727-1.135054 1.746552-2.29056 3.477765-3.448111 5.208979-0.973488 1.240379-1.680085 2.719017-2.00015 4.373538-1.075745 5.564833 2.562564 10.947649 8.127397 12.024417 4.482953 0.867141 8.843197-1.329343 10.934356-5.123083 1.187205-1.774161 2.372366-3.548323 3.536052-5.339868 34.899338-53.709538 60.233544-114.911457 73.140439-181.669006C1068.263006 331.594021 886.747386 63.068825 609.170389 9.402235z" p-id="1391" fill="#d81e06"></path><path d="M711.911202 801.905269c1.299688 0.557301 2.667889 0.82726 4.026886 0.82726 2.659708 0 5.275446-1.03791 7.232647-2.995112 41.465269-41.465269 64.388251-97.14837 66.292279-161.031471 1.234244-41.369147-6.827709-85.343806-23.311559-127.167998-17.888863-45.388875-45.806084-88.650802-81.035713-125.691405l38.054993-38.053971c3.993141-3.993141 3.993141-10.468063 0-14.461204-3.992119-3.993141-10.464995-3.993141-14.462227 0l-38.063174 38.062151c-60.735626-57.843794-135.468209-94.190071-211.506616-102.638556-38.756477-4.306048-75.776628-1.135054-110.032769 9.426063-35.67956 10.9998-66.748346 29.55538-92.343307 55.150341-3.003292 3.003292-3.836688 7.549644-2.096271 11.423145 1.740416 3.8735 5.681407 6.259159 9.934281 6.015787 0.381419-0.023519 38.535602-2.04412 59.03918 18.460481 20.597655 20.597655 20.51994 61.21828 20.516872 61.61197-0.057264 5.37259 4.053473 9.872927 9.409702 10.302407 0.487767 0.038858 49.207157 4.326499 85.764083 40.883426 29.876468 29.876468 37.937398 67.977477 39.877216 80.802567l-131.625386 131.625386c-1.987879 1.525676-12.729991 9.437311-26.699338 13.637012-19.748921 5.940117-36.823817 1.887667-50.749194-12.03771-17.385758-17.385758-16.656665-37.369871-11.756503-52.798427 9.933258 1.764958 20.539368-1.183115 28.213767-8.857513 12.480484-12.480484 12.480484-32.714103 0-45.194587-12.480484-12.480484-32.714103-12.480484-45.194587 0-12.100087 12.100087-12.46719 31.489063-1.104377 44.032946-0.713755 1.947998-1.388652 3.963487-2.00015 6.046464-7.991395 27.239256-1.981743 51.870955 17.380646 71.232321 13.737224 13.737224 30.08405 20.719341 48.100734 20.719341 7.406484 0 15.095198-1.180047 22.998653-3.557526 19.533158-5.871605 33.49637-17.164883 34.081281-17.642424 0.264846-0.216785 0.518444-0.446864 0.760793-0.688191l132.379021-132.379021c11.596982 0.997007 47.004538 6.723407 79.829079 39.54897 3.994164 3.992119 10.46704 3.992119 14.462227 0 3.993141-3.993141 3.993141-10.468063 0-14.462227-34.795036-34.794013-72.336698-43.138196-89.276616-45.129142-2.936825-17.425639-12.895647-57.042098-45.214015-89.361489-32.233495-32.232472-71.977776-42.475569-89.562936-45.562712-1.194363-15.492979-6.104751-47.21212-26.127721-67.23509-14.173862-14.173862-33.588402-20.223394-49.083426-22.756303 44.520712-34.938196 103.20915-50.112132 167.860203-42.930614 74.526024 8.280783 147.910858 45.182316 206.634064 103.905522 36.637709 36.637709 65.549892 80.224814 83.610548 126.050327 15.47764 39.267763 23.048759 80.438531 21.897343 119.060029-1.497044 50.183712-17.01661 94.726921-45.147548 130.174357-2.914328-15.685222-9.482304-35.771592-24.239032-50.529341-27.43968-27.438657-72.593364-25.926274-74.501482-25.841401-5.643571 0.231101-10.030403 4.992193-9.799301 10.63372 0.231101 5.643571 5.006509 10.045741 10.63372 9.799301 0.383464-0.006135 38.036587-1.299688 59.204837 19.869584 21.107918 21.107918 20.552662 59.6834 20.544481 60.053571C705.61523 796.436557 708.068378 800.258929 711.911202 801.905269z" p-id="1392" fill="#d81e06"></path></svg>