<?xml version="1.0" standalone="no"?><!DOCTYPE svg PUBLIC "-//W3C//DTD SVG 1.1//EN" "http://www.w3.org/Graphics/SVG/1.1/DTD/svg11.dtd"><svg t="1517359740398" class="icon" style="" viewBox="0 0 1024 1024" version="1.1" xmlns="http://www.w3.org/2000/svg" p-id="2269" xmlns:xlink="http://www.w3.org/1999/xlink" width="64" height="64"><defs><style type="text/css"></style></defs><path d="M196.6 699.6c0 24.5 20.1 44.6 44.6 44.6h2.7v-42.7l-47.3-31.2v29.3z" fill="#2EA7E0" p-id="2270"></path><path d="M196.6 624.6l47.3 31.2v-53.8l-47.3-31.3z" fill="#E83828" p-id="2271"></path><path d="M196.6 525.2l47.3 31.2v-53.6l-47.3-31.3z" fill="#2EA7E0" p-id="2272"></path><path d="M196.6 426.8l47.3 31.2v-53.6L196.6 373.1z" fill="#E83828" p-id="2273"></path><path d="M243.9 305.9l-27.7-18.3c-11.8 8.1-19.6 21.6-19.6 36.8v4.1l47.3 31.2v-53.8z" fill="#2EA7E0" p-id="2274"></path><path d="M782.8 279.8c24.5 0 44.6 20.1 44.6 44.6V699.1c0 24.5-20.1 44.6-44.6 44.6H241.2c-24.5 0-44.6-20.1-44.6-44.6V324.3c0-24.5 20.1-44.6 44.6-44.6l541.6 0.1m0-22.8H241.2c-37.5 0-67.5 30.5-67.5 67.5v375.1c0 37.5 30.5 67.5 67.5 67.5h541.6c37.5 0 67.5-30.5 67.5-67.5V324.3c0-37.5-30.5-67.3-67.5-67.3z" fill="#592900" p-id="2275"></path><path d="M436.9 459.2c0-3.9 3.2-7.1 7.1-7.1v-7.1c-3.9 0-7.1-3.2-7.1-7.1s3.2-7.1 7.1-7.1v-7.1c-3.9 0-7.1-3.2-7.1-7.1s3.2-7.1 7.1-7.1v-7.1c-3.9 0-7.1-3.2-7.1-7.1s3.2-7.1 7.1-7.1V381.1c-3.9 0-7.1-3.2-7.1-7.1s3.2-7.1 7.1-7.1v-7.1c-3.9 0-7.1-3.2-7.1-7.1s3.2-7.1 7.1-7.1v-6.7h-7.1c0 3.9-3.2 7.1-7.1 7.1-3.9 0-7.1-3.2-7.1-7.1h-7.1c0 3.9-3.2 7.1-7.1 7.1-3.9 0-7.1-3.2-7.1-7.1h-7.1c0 3.9-3.2 7.1-7.1 7.1-3.9 0-7.1-3.2-7.1-7.1H373c0 3.9-3.2 7.1-7.1 7.1s-7.1-3.2-7.1-7.1H352c0 3.9-3.2 7.1-7.1 7.1-3.9 0-7.1-3.2-7.1-7.1h-7.1c0 3.9-3.2 7.1-7.1 7.1-3.9 0-7.1-3.2-7.1-7.1h-7.1v7.1c3.9 0 7.1 3.2 7.1 7.1s-3.2 7.1-7.1 7.1v7.1c3.9 0 7.1 3.2 7.1 7.1s-3.2 7.1-7.1 7.1v7.1c3.9 0 7.1 3.2 7.1 7.1s-3.2 7.1-7.1 7.1v7.1c3.9 0 7.1 3.2 7.1 7.1s-3.2 7.1-7.1 7.1v7.1c3.9 0 7.1 3.2 7.1 7.1s-3.2 7.1-7.1 7.1v7.1c3.9 0 7.1 3.2 7.1 7.1s-3.2 7.1-7.1 7.1v7.1h7.1v-0.5c0-3.9 3.2-7.1 7.1-7.1 3.9 0 7.1 3.2 7.1 7.1v0.5h7.1v-0.5c0-3.9 3.2-7.1 7.1-7.1 3.9 0 7.1 3.2 7.1 7.1v0.5h7.1v-0.5c0-3.9 3.2-7.1 7.1-7.1s7.1 3.2 7.1 7.1v0.5h7.1v-0.5c0-3.9 3.2-7.1 7.1-7.1 3.9 0 7.1 3.2 7.1 7.1v0.5h7.1v-0.5c0-3.9 3.2-7.1 7.1-7.1 3.9 0 7.1 3.2 7.1 7.1v0.5h7.1v-0.5c0-3.9 3.2-7.1 7.1-7.1s7.1 3.2 7.1 7.1v0.5h7.1v-7.1c-4.1-0.4-7.4-3.7-7.4-7.5z" fill="#592900" p-id="2276"></path><path d="M323.3 353.1h107.6v107.6H323.3z" fill="#FFFFFF" p-id="2277"></path><path d="M323.3 353.1h107.6v107.6H323.3z" fill="#94E6FF" p-id="2278"></path><path d="M349.4 452.2l19.6-22.3c2.7-3.2 7.1-3.2 9.8-0.5l14.2 18.5c3.2 2.7 8.1 2.2 10.3-1.1l14.2-25c2.7-3.9 8.1-3.9 10.9-0.5l12 13c1.1 1.7 1.7 3.2 1.7 4.9l-1.1 18.5c0 3.9-3.2 6.6-7.1 6.6h-80c-4.9 0-8.1-4.9-6.6-9.8v-0.5c1-0.2 1-1.3 2.1-1.8z" fill="#77D900" p-id="2279"></path><path d="M434.2 466.8h-80c-2.7 0-6-1.7-7.6-3.9-1.7-2.2-2.2-5.4-1-8.1v-0.5c0.5-1.1 1-1.7 1.7-2.7l19.6-22.3c1.7-1.7 3.9-2.7 6.6-3.2 2.7-0.5 4.9 0.5 6.6 2.2l14.2 18.5c1.1 1.1 2.7 1.7 3.9 1.1 1.1-0.5 2.7-1.1 3.9-2.2l14.2-25.6c1.7-2.2 4.4-3.9 7.1-3.9s5.4 1.1 7.1 3.2l12 13c1.7 1.7 2.2 3.9 2.2 6.6l-1.1 18.5c-1.2 5.5-5 9.3-9.4 9.3z m-83.7-13c-0.5 0.5-0.5 1.1-1.1 1.7v0.5c-0.5 1.7-0.5 3.2 0.5 4.9 1.1 1.7 2.7 2.2 4.4 2.2h80c2.7 0 4.9-2.2 4.9-4.9l1.1-18.5c0-1.7-0.5-2.7-1.1-3.9l-12-13c-1.1-1.1-2.7-1.7-4.4-1.7-1.7 0-2.7 1.1-3.9 2.2l-14.2 25.6c-1.7 2.2-3.9 3.2-6.6 3.9-2.7 0-4.9-0.5-7.1-2.2L377 432.1c-1.1-1.1-2.2-1.1-3.9-1.1s-2.7 0.5-3.9 1.7l-18.7 21.1z" fill="#592900" p-id="2280"></path><path d="M353.8 439.1m-36.4 0a36.4 36.4 0 1 0 72.8 0 36.4 36.4 0 1 0-72.8 0Z" fill="#FFE100" p-id="2281"></path><path d="M322.2 457s7.6-2.7 21.8 3.2c14.7 6 19.1 14.7 19.1 14.7s-6.6 4.9-22.8-2.2c-17-7-18.1-15.7-18.1-15.7z" fill="#F04726" p-id="2282"></path><path d="M355.4 477.1c-3.9 0-9.3-1.1-16.3-3.9-16.9-7.1-18.5-16.3-18.5-16.3v-1.1l1.1-0.5s8.1-3.2 22.8 3.2c14.7 6 19.6 14.7 19.6 15.2l0.5 1.1-1.1 0.6c0 0.1-2.7 1.7-8.1 1.7z m-31.5-19.5c1.1 2.7 4.4 8.7 16.9 13.6 12 4.9 18.5 3.2 20.7 2.7-1.7-2.2-6.6-8.1-17.4-13-11-4.4-18-3.9-20.2-3.3z" fill="#592900" p-id="2283"></path><path d="M326.1 466.3c-0.7 0-0.7 0 0 0l-9.3-2.2c-1.1 0-1.1-1.1-1.1-2.2s1.1-1.1 2.2-1.1l8.7 2.2c1.1 0 1.1 1.1 1.1 2.2-0.6 0.5-1.1 1.1-1.6 1.1z" fill="#592900" p-id="2284"></path><path d="M316.3 472.8c-0.5 0-1.1 0-1.1-0.5-0.5-0.5 0-1.7 0.5-2.2l9.8-6.6c0.5-0.5 1.7 0 2.2 0.5 0.5 0.5 0 1.7-0.5 2.2l-9.8 6.6h-1.1z" fill="#592900" p-id="2285"></path><path d="M323.9 472.3s-0.6 0 0 0c-1.1-0.5-1.7-1.1-1.7-2.2l2.2-5.4c0-0.5 1.1-1.1 2.2-1.1 0.5 0 1.1 1.1 1.1 2.2l-2.2 5.4c-0.6 0.5-1.1 1.1-1.6 1.1zM362.5 483.2h-0.5l-7.6-4.4c-0.5-0.5-1.1-1.7-0.5-2.2 0.5-0.5 1.7-1.1 2.2-0.5l7.6 4.4c0.5 0.5 1.1 1.7 0.5 2.2-0.7-0.1-1.2 0.5-1.7 0.5z" fill="#592900" p-id="2286"></path><path d="M357 489.6c-0.5 0-1.7-0.5-1.7-1.1l-2.2-11.5c0-1.1 0.5-1.7 1.1-1.7 1.1 0 1.7 0.5 1.7 1.1l2.2 11.5c0.6 0.7 0 1.7-1.1 1.7z" fill="#592900" p-id="2287"></path><path d="M352.1 483.7h-0.5c-0.5-0.5-1.1-1.1-0.5-2.2l2.7-5.4c0.5-0.5 1.1-1.1 2.2-0.5 0.5 0.5 1.1 1.1 0.5 2.2l-2.7 5.4c-0.6 0-1.1 0.5-1.7 0.5z" fill="#592900" p-id="2288"></path><path d="M340.1 472.8c18.5 7.6 39.7-1.1 47.3-19.6 4.4-10.3 3.2-21.2-1.1-30.5 1.1 6 2.2 20.7-6 32.6-12 18.5-31.5 16.9-44 11.5-12.5-5.4-17.4-17.9-18.5-28.8-1 14.7 7.6 28.8 22.3 34.8z" fill="#F5E22A" p-id="2289"></path><path d="M340.1 472.8c18.5 7.6 39.7-1.1 47.3-19.6 4.4-10.3 3.2-21.2-1.1-30.5 1.1 6 2.2 20.7-6 32.6-12 18.5-31.5 16.9-44 11.5-12.5-5.4-17.4-17.9-18.5-28.8-1 14.7 7.6 28.8 22.3 34.8z" fill="#C4A805" p-id="2290"></path><path d="M350.5 429.3c-7.6-3.2-12-1.1-12-1.1-0.5 0-1.1 0-1.7-0.5 0-0.5 0-1.1 0.5-1.7 0 0 5.4-2.7 13.6 1.1 0.5 0 1.1 1.1 0.5 1.7 0.2 0.5-0.4 0.5-0.9 0.5z" fill="#592900" p-id="2291"></path><path d="M372.8 442.9c-0.5 0-1.1 0-1.1-1.1 0 0-1.7-4.4-8.7-7.6-0.5 0-1.1-1.1-0.5-1.7 0-0.5 1.1-1.1 1.7-0.5 8.1 3.2 10.3 8.7 10.3 9.3-0.1 0.5-0.6 1.1-1.7 1.6z" fill="#592900" p-id="2292"></path><path d="M347.8 439.7s-2.7 12 0.5 13c2.7 1.1 9.3-9.3 9.3-9.3l-9.8-3.7z" fill="#F29019" p-id="2293"></path><path d="M348.9 453.2c-0.6 0-0.6 0 0 0-3.9-1.7-1.7-12.5-1.1-13.6v-0.5l10.3 4.4v0.5c-1.1 1.6-6.5 9.2-9.2 9.2z m-0.6-13c-1.1 4.4-1.7 11.5 0 12.5 1.7 0.5 6-4.9 8.7-8.7l-8.7-3.8z" fill="#592900" p-id="2294"></path><path d="M348.9 453.8h-0.5c-3.2-1.7-1.1-12-0.5-14.2v-0.5l10.9 4.4-0.5 0.5c-1.8 2.7-6.7 9.8-9.4 9.8z m-0.6-13.1c-1.1 4.9-1.7 10.9 0 12 1.1 0.5 4.9-3.9 8.1-8.1l-8.1-3.9z" fill="#734521" p-id="2295"></path><path d="M348.3 440.2s-0.5 8.7 1.7 9.8c1.7 0.5 6.6-4.4 7.1-6 1-1.6-8.2-5.5-8.8-3.8z" fill="#471313" p-id="2296"></path><path d="M348.3 446.1s0.5 3.2 1.7 3.9c1.1 0 3.2-1.7 3.2-1.7s-0.5-1.1-1.1-1.1H351s-0.5-0.5-1.1-0.5c-1-1.1-1.6-0.6-1.6-0.6z" fill="#F04726" p-id="2297"></path><path d="M350.5 450.5h-0.5c-3.2-1.1-2.2-8.1-1.7-8.7l0.5-0.5 0.5 0.5c0 1.7-0.5 7.1 1.1 7.6 1.1 0.5 4.4-2.7 6-4.9h1.1v1.1c-1.6 0.5-4.8 4.9-7 4.9z" fill="#592900" p-id="2298"></path><path d="M348.3 439.1c-0.5 0.5-0.5 2.2 0 2.2 1.1 0.5 2.7 0.5 4.4 1.1 1.1 0.5 2.2 1.7 3.2 2.2s2.2-0.5 2.2-1.7c0-2.2-1.1-4.4-3.9-5.4-2.6-0.5-4.8 0.5-5.9 1.6z" fill="#F29019" p-id="2299"></path><path d="M356.5 445.6h-0.5c-0.5 0-1.1-0.5-1.7-1.1-0.5-0.5-1.1-0.5-1.7-1.1-0.5 0-1.7-0.5-2.2-0.5-0.5 0-1.7 0-2.2-0.5-0.5 0-1.1-1.1-1.1-1.7 0-0.5 0-1.1 0.5-1.7 2.2-1.7 4.4-2.2 6.6-1.1 2.7 1.1 3.9 3.2 4.4 6 0 0.5 0 1.1-1.1 1.7 0.1-0.5-0.5 0-1 0z m-8.2-5.9v0.5s0 0.5 0.5 0.5 1.1 0.5 1.7 0.5c0.5 0 1.7 0 2.2 0.5 0.5 0 1.7 0.5 2.2 1.1 0.5 0 1.1 0.5 1.7 1.1h0.5v-0.5c0-1.7-0.5-3.2-3.2-4.9-2.3-1-4.5 0-5.6 1.2z" fill="#592900" p-id="2300"></path><path d="M375 449.4s2.7 1.1 2.7 3.2c0 2.2-2.7 6-3.9 7.1-1.7 1.1-4.9 4.4-6.6 6.6-1.1 1.1-3.9 0.5-1.7-1.1 2.7-2.2 9.3-7.6 9.8-8.7 0.7-1.1 2.4-4.9-0.3-7.1z" fill="#CACACB" p-id="2301"></path><path d="M363.5 465.2s0.6 0 0 0l1.1-1.1 1.1-1.1c0.6-0.6 1.1-1.1 1.7-1.1 1.1-1.1 2.7-1.7 4.4-3.2 0.5-0.5 1.7-1.1 2.2-2.2 0.5-0.5 1.1-1.7 1.7-2.2 0.5-0.5 0.5-1.7 0-2.2-0.5-0.5-1.1-1.1-2.2-1.1h-2.7c-0.5 0-1.7 0-2.2 0.5-0.5 0-1.7 0.5-2.2 0.5H363c-0.5 0-1.1-0.5-1.1-1.7 0-0.5 0.5-1.1 1.7-1.1h5c0.5 0 1.7-0.5 2.7-0.5h3.2c1 0 2.2 0.5 3.2 2.2 0.5 0.5 0.5 1.1 0.5 2.2 0 0.5 0 1.1-0.5 1.7-0.5 1.1-1.1 2.2-1.7 2.7-0.5 0.5-1.1 1.7-2.2 2.2-0.5 0.5-1.7 1.1-2.2 1.7-0.5 0.5-1.1 1.1-2.2 1.7-0.5 0.5-1.1 1.1-1.7 1.1l-1.1 1.1-0.5 0.5c-0.5 0.5-1.1 0.5-1.7 0-0.9 1-0.9 0.5-0.9-0.6z" fill="#592900" p-id="2302"></path><path d="M330.3 431.4s-2.2-1.1-4.4 0c-1.7 1.7-2.2 6-2.2 7.6 0 2.2 0.5 6.6 0 9.3 0 1.7 2.2 3.2 2.2 0-0.5-3.2-1.1-12-0.5-13 0.7-0.5 2.2-4.4 4.9-3.9z" fill="#CACACB" p-id="2303"></path><path d="M325.4 450v-1.7-1.7-2.2-2.7-2.7-3.2c0-1 0-2.2 0.5-3.2 0-0.5 0.5-1.1 1.1-1.7 0.5-0.5 1.1-0.5 1.7-1.1 1.1 0 2.7 0 3.2 0.5 1 0.5 1.7 1.1 2.2 2.2 0.5 0.5 1.1 1.7 1.7 2.2 0.5 0.5 0.5 1.1 1.1 1.7l1.1 1.1c0.6 0.6 1.1 0.5 1.1 0.5 0.5 0.5 0.5 1.1 0 1.7-0.5 0.5-1.1 0.5-1.7 0l-1.1-1.1c0-0.5-0.5-1.1-1.1-1.7-0.5-0.5-0.5-1.1-1.1-2.2-0.5-0.5-0.5-1.1-1.1-2.2l-1.7-1.7c-0.5-0.5-1.7-0.5-2.2-0.5-0.5 0-1.1 0.5-1.7 1.7 0 0.5-0.5 1.7-0.5 2.7v2.7c0 1.7 0.5 3.2 0.5 4.9v5.5c0 0.5-0.5 1.1-1.1 1.1-0.9 2.1-0.9 1.6-0.9 1.1z" fill="#592900" p-id="2304"></path><path d="M353.8 477.1c-4.9 0-9.8-1.1-14.2-2.7-9.3-3.9-16.9-10.9-20.7-20.7-3.9-9.3-3.9-19.6 0-28.8 8.1-19.6 29.9-28.3 49.5-20.7 9.3 3.9 16.9 10.9 20.7 20.7 3.9 9.8 3.9 19.6 0 28.8-3.9 9.3-10.9 16.9-20.7 20.7-4.9 1.7-9.7 2.7-14.6 2.7z m0-72.3c-13.6 0-26.7 8.1-32.1 21.2-3.2 8.7-3.2 17.9 0 26.7 3.2 8.7 10.3 15.2 19.1 18.5 8.7 3.2 17.9 3.2 26.7 0 8.7-3.2 15.2-10.3 18.5-19.1 3.2-8.7 3.2-17.9 0-26.7s-10.3-15.2-19.1-18.5c-4.4-1.5-8.8-2.1-13.1-2.1z" fill="#592900" p-id="2305"></path><path d="M359.7 417.9c-0.5 0-1.1 0-1.7-0.5-0.6-0.5-1.7-1.7-1.1-3.2v-0.5-1.7c0-1.7 0-2.2-2.2-3.2-0.5 0-1.1-0.5-1.1-1.1-1.7-1.7-2.7-3.9-2.2-6 0.5-2.2 2.7-3.9 4.9-4.4 1.7-0.5 3.2 0 4.4 0.5 0.5-2.7 1.7-5.4 3.2-7.1 3.9-4.4 8.7-6 13.6-3.2 2.2 1.1 3.2 2.7 4.4 4.4 1.1 2.2 1.1 4.9 0 7.1 1.1 0 1.7 0 2.2 0.5 1.7 0.5 2.2 1.1 2.7 2.2l-1.7 1.7 1.7-1.7c2.2 2.2 2.7 8.7-0.5 11.5-0.5 0.5-1.1 1.1-2.2 1.1-1.7 0.5-3.9 0.5-6.6 0.5h-6.6c-1.7 0.5-5.4 2.2-7.1 3.2-1.7 0.5-2.2 1.1-2.2 1.1-0.2-1.7-0.8-1.2-1.9-1.2z m-1-16.9s-0.6 0 0 0c-0.6 0-0.6 0 0 0-1.1 0.5-1.7 0.5-2.2 1.7v1.1c0.5 0 0.5 0.5 1.1 1.1 2.2 1.7 4.4 3.2 3.9 7.6 1.7-0.5 3.2-1.7 4.9-2.2h-0.5c-1.1-0.5-1.1-1.7-1.1-2.7 1.1-2.7 3.2-4.4 4.4-5.4 0.5-0.5 1.7-1.1 3.2-2.2 1.1-0.5 2.7-1.7 3.2-2.2 1.7-1.7 1.7-3.2 1.1-3.9-0.5-1.1-1.1-1.7-2.2-2.2-3.2-1.7-6 0.5-7.6 2.7-2.2 2.2-3.2 9.3-3.2 10.9 0 1.1-1.1 2.2-2.7 2.2-1.1 0-2.2-1.1-2.2-2.2 0.9-2.6 0.9-3.7-0.1-4.3 0.5 0 0 0 0 0z m23.4 1.1c-0.5 0-1.7 0-4.4 1.1-2.2 0.5-6 3.9-7.6 5.4 2.7-0.5 5.4-0.5 8.1-0.5h4.9c0.5-0.5 1.1-3.9 0-5.4 0-0.6 0-0.6-1-0.6 0.5 0 0 0 0 0z" fill="#592900" p-id="2306"></path><path d="M385.3 401c-1.7-2.2-3.9-1.7-8.1 0-3.9 1.1-9.3 6.6-9.3 6.6 0.5-2.2 2.7-3.2 3.9-4.9 1.1-1.7 3.2-1.7 5.4-3.9 3.2-2.2 3.2-5.4 2.2-7.6-3.2-6-10.3-4.4-13.6 0-2.2 2.7-3.2 8.7-3.9 12.5 0-1.7-0.5-5.4-4.4-4.9-4.4 0.5-4.9 4.9-2.7 6.6 2.2 2.2 4.9 3.2 4.4 7.1v2.2c0 2.2 1.1 1.1 1.7 0.5 0.5 0 5.4-2.7 9.8-4.4 4.4-1.1 9.8 0 13-0.5 3.3-1.1 2.6-7.6 1.6-9.3z" fill="#F04726" p-id="2307"></path><path d="M371.1 410.8c4.4-1.1 9.8 0 13-0.5s2.7-7.1 1.1-8.7c-0.5-0.5-1.1-1.1-1.7-1.1 1.1 1.1 3.2 3.9 0 6.6-2.2 2.2-6 2.2-9.8 2.7-2.7 0.5-10.3 4.4-12.5 6 0.7-1.2 5.6-3.9 9.9-5zM379.3 393.4c0 2.2-4.4 4.4-5.4 5.4-1.7 1.1-4.9 3.9-5.4 8.1 0.5-2.2 2.7-3.2 3.9-4.9 1.1-1.1 3.2-1.7 5.4-3.9 3.2-2.2 3.2-5.4 2.2-7.6-0.5-1.7-1.7-2.7-3.2-3.2 0.9 1.8 2.5 4 2.5 6.1zM357 398.3s2.2 0 3.2 1.7c1.1 1.1 1.7 3.2 1.7 3.2s0-2.7-1.1-3.9c-1.6-1.5-3.8-1-3.8-1z" fill="#912527" p-id="2308"></path><path d="M356.5 404.8c-2.2-1.7-1.7-3.9-1.1-4.9 0 0 0.5-0.5 1.1 0 0.5 0 0.5 0.5 0 1.1 0 0-1.1 2.2 0.5 3.2v1.1c0-0.5 0-0.5-0.5-0.5z" fill="#FFFFFF" p-id="2309"></path><path d="M370.1 390.1s-4.4 1.7-5.4 7.6" fill="#F04726" p-id="2310"></path><path d="M364.6 398.3c-0.5 0-0.5-0.5-0.5-0.5 1.1-6 6-7.6 6-7.6h0.5v0.5c-0.5 0.6-4.3 2.2-6 7.6 0.6 0 0 0 0 0z" fill="#FFFFFF" p-id="2311"></path><path d="M372.3 390.1m-0.5 0a0.5 0.5 0 1 0 1 0 0.5 0.5 0 1 0-1 0Z" fill="#FFFFFF" p-id="2312"></path><path d="M417.4 357.5m-13.6 0a13.6 13.6 0 1 0 27.2 0 13.6 13.6 0 1 0-27.2 0Z" fill="#F04726" p-id="2313"></path><path d="M417.4 372.2c-8.1 0-14.7-6.6-14.7-14.7s6.6-14.7 14.7-14.7 14.7 6.6 14.7 14.7c-0.1 8.1-6.6 14.7-14.7 14.7z m0-27.2c-7.1 0-12.5 5.4-12.5 12.5 0 6.6 5.4 12.5 12.5 12.5s12.5-5.4 12.5-12.5c-0.6-7.1-6-12.5-12.5-12.5z" fill="#592900" p-id="2314"></path><path d="M417.4 377.6m-2.7 0a2.7 2.7 0 1 0 5.4 0 2.7 2.7 0 1 0-5.4 0Z" fill="#F7BC00" p-id="2315"></path><path d="M417.4 380.9c-1.7 0-3.2-1.7-3.2-3.2 0-1.7 1.7-3.2 3.2-3.2 1.7 0 3.2 1.7 3.2 3.2 0 1.6-1.6 3.2-3.2 3.2z m0-5.5c-1.1 0-2.2 1.1-2.2 2.2s1.1 2.2 2.2 2.2 2.2-1.1 2.2-2.2c-0.6-1-1.1-2.2-2.2-2.2z" fill="#592900" p-id="2316"></path><path d="M427.7 374.9m-2.7 0a2.7 2.7 0 1 0 5.4 0 2.7 2.7 0 1 0-5.4 0Z" fill="#F7BC00" p-id="2317"></path><path d="M427.7 378.2c-1.1 0-2.2-0.5-2.7-1.7-1.1-1.7-0.5-3.2 1.1-4.4 1.7-1.1 3.2-0.5 4.4 1.1 1.1 1.7 0.5 3.2-1.1 4.4-0.6 0-1.1 0.6-1.7 0.6z m-1.6-2.1c0.5 1.1 1.7 1.1 2.7 0.5 1.1-0.5 1.1-1.7 0.5-2.7-0.5-1.1-1.7-1.1-2.7-0.5-1.1 0.5-1.1 1.5-0.5 2.7z" fill="#592900" p-id="2318"></path><path d="M397.3 357.5m-2.7 0a2.7 2.7 0 1 0 5.4 0 2.7 2.7 0 1 0-5.4 0Z" fill="#F7BC00" p-id="2319"></path><path d="M397.3 360.2c-1.7 0-3.2-1.7-3.2-3.2 0-1.7 1.7-3.2 3.2-3.2 1.7 0 3.2 1.7 3.2 3.2-0.5 2.2-1.6 3.2-3.2 3.2z m0-4.9c-1.1 0-2.2 1.1-2.2 2.2s1.1 2.2 2.2 2.2 2.2-1.1 2.2-2.2c-0.6-1-1.7-2.2-2.2-2.2z" fill="#592900" p-id="2320"></path><path d="M400 367.3m-2.7 0a2.7 2.7 0 1 0 5.4 0 2.7 2.7 0 1 0-5.4 0Z" fill="#F7BC00" p-id="2321"></path><path d="M400 370.5c-1.1 0-2.2-0.5-2.7-1.7-1.1-1.7-0.5-3.2 1-4.4 1.7-1.1 3.2-0.5 4.4 1.1 1.1 1.7 0.5 3.2-1.1 4.4-0.6 0.6-1.1 0.6-1.6 0.6z m0-4.9h-1.1c-1.1 0.5-1.1 1.7-0.5 2.7 0.5 1.1 1.7 1.1 2.7 0.5 1.1-0.5 1.1-1.7 0.5-2.7-0.6-0.5-1.1-0.5-1.6-0.5z" fill="#592900" p-id="2322"></path><path d="M407.1 374.9m-2.7 0a2.7 2.7 0 1 0 5.4 0 2.7 2.7 0 1 0-5.4 0Z" fill="#F7BC00" p-id="2323"></path><path d="M407.1 378.2c-0.5 0-1.1 0-1.7-0.5-1.7-1.1-2.2-2.7-1.1-4.4 1.1-1.7 2.7-2.2 4.4-1.1 1.7 0.5 2.2 2.7 1.1 4.4-0.6 1-1.7 1.6-2.7 1.6z m-1.7-4.3c-0.5 1.1 0 2.2 0.5 2.7s2.2 0 2.7-0.5c0.5-1.1 0-2.2-0.5-2.7-1-0.7-2.2-0.7-2.7 0.5z" fill="#592900" p-id="2324"></path><path d="M603.9 342.3h126.2v14.7H603.9zM574.6 404.8h155.5v14.7H574.6z" fill="#153568" p-id="2325"></path><path d="M544.1 372.7h185.4v14.7H544.1z" fill="#B5B5B6" p-id="2326"></path><path d="M447.2 629.5h8.7c2.2 0 4.4 0.5 4.9 2.2 0.5 1.1 1.1 1.7 1.1 2.7s-0.5 2.2-1.1 3.2c-0.5 0.5-1.1 0.5-1.7 1.1 1.1 0.5 1.7 1.1 2.2 1.1 1.1 1 1.1 2.2 1.1 3.9 0 1.1-0.5 2.7-1.1 3.9-1.1 1.7-3.2 2.2-5.4 2.2h-8.7v-20.3z m7.7 8.6c1.1 0 2.2 0 2.7-0.5 1.1-0.5 1.7-1.7 1.7-2.7s-0.5-2.2-1.7-2.7c-0.5 0-1.7-0.5-2.7-0.5H450v6l4.9 0.4z m0.6 8.7c1.7 0 2.7-0.5 3.9-1.7 0.5-0.5 0.5-1.1 0.5-2.2 0-1.7-0.5-2.2-2.2-2.7-0.5-0.5-1.7-0.5-2.7-0.5h-5.4v7.1h5.9zM474.5 635.4c1.1 0.5 1.7 1.1 2.2 1.7 0.5 0.5 0.5 1.7 1 2.7v3.2h-10.3c0 1.7 0.5 2.7 1.1 3.9 0.5 1.1 1.7 1.1 3.2 1.1 1.1 0 2.2-0.5 3.2-1.1 0.5-0.5 0.5-1.1 1.1-1.7h2.2c0 0.5-0.5 1.1-0.5 1.7 0 0.5-0.5 1.1-1.1 1.7-0.5 0.5-1.7 1.1-2.7 1.7h-2.2c-1.7 0-3.2-0.5-4.9-2.2-1.7-1.7-1.7-3.2-1.7-5.4s0.5-4.4 1.7-5.4c1.1-1.7 2.7-2.2 4.9-2.2 0.6-0.2 1.7-0.2 2.8 0.3z m0.5 5.4c0-1.1-0.5-2.2-0.5-2.7-0.5-1.1-1.7-1.7-3.2-1.7-1.1 0-2.2 0.5-2.7 1.1-0.5 0.5-1.1 1.7-1.1 3.2l7.5 0.1zM481 629.5h2.7v2.7H481v-2.7z m0 5.4h2.7V649.1H481v-14.2zM484.8 652.8c1.1 0 1.7 0 2.2-0.5 0 0 0.5-0.5 0.5-1.7v-16.3h2.2v16.3c0 1.1 0 1.7-0.5 2.2-0.5 1.1-1.7 1.1-3.2 1.1h-1l-0.2-1.1z m4.4-20.6H487v-2.7h2.2v2.7zM493 629.5h2.7v2.7H493v-2.7z m0 5.4h2.7V649.1H493v-14.2zM499 634.9h2.2v2.2c0.5-1.1 1.7-1.7 2.2-1.7 0.5-0.5 1.7-0.5 2.7-0.5 2.2 0 3.9 0.5 4.4 2.2 0.5 0.5 0.5 2.2 0.5 3.2v9.3h-2.7v-9.3c0-1.1 0-1.7-0.5-2.2-0.5-1.1-1.1-1.1-2.2-1.1h-1.7c-0.5 0-1.1 0.5-1.7 1.1-0.5 0.5-0.5 1.1-0.5 1.7v9.8h-2.2l-0.5-14.7zM522.9 635.4c0.5 0.5 1.1 0.5 1.7 1.7v-1.7h2.2v13c0 1.7 0 3.2-0.5 4.4-1.1 2.2-2.7 2.7-5.4 2.7-1.7 0-2.7-0.5-3.9-1.1-1.1-0.5-1.7-1.7-1.7-3.2h2.7c0 0.5 0.5 1.1 0.5 1.7 0.5 0.5 1.7 0.5 2.7 0.5 1.7 0 3.2-0.5 3.9-2.2 0.5-0.5 0.5-2.2 0.5-4.4l-1.7 1.7c-0.5 0.5-1.7 0.5-2.7 0.5-1.7 0-2.7-0.5-4.4-1.7-1.1-1.1-1.7-2.7-1.7-5.4 0-2.2 0.5-4.4 1.7-5.4 1.1-1.7 2.7-2.2 4.4-2.2-0.5 0.6 0.6 0.6 1.7 1.1z m0 2.7c-0.5-1.1-1.7-1.1-2.7-1.1-1.7 0-2.7 0.5-3.9 2.2-0.5 1.1-0.5 2.2-0.5 3.2 0 1.7 0.5 2.7 1.1 3.9 0.5 1 1.7 1 2.7 1 1.7 0 2.7-0.5 3.9-2.2 0.5-1.1 0.5-2.2 0.5-3.2 0.5-1.6 0-3.2-1.1-3.8zM538.1 629.5h8.7c1.7 0 3.2 0.5 4.4 1.7 1.1 1.1 1.7 2.2 1.7 4.4 0 1.7-0.5 2.7-1.7 4.4-1.1 1.1-2.7 1.7-4.4 1.7h-6v8.7h-2.7v-20.9z m10.9 2.7c-0.5-0.5-1.7-0.5-2.2-0.5h-5.4v7.1h5.4c1.1 0 2.2 0 2.7-0.5s1.1-1.7 1.1-2.7c0-1.8-0.5-2.9-1.6-3.4zM564.2 640.8c0.5 0 1.1-0.5 1.1-0.5v-1.1c0-1.1-0.5-1.7-1.1-1.7s-1.7-0.5-2.7-0.5c-1.1 0-2.2 0.5-2.7 1.1-0.5 0.5-0.5 1.1-0.5 1.7H556c0-1.7 0.5-3.2 1.7-3.9 1.1-0.5 2.2-1.1 3.9-1.1s3.2 0.5 4.4 1.1c1.1 0.5 1.7 1.7 1.7 3.2v8.6h1.5v1.7h-1.6c-1.1 0-1.7-0.5-1.7-1.1 0-0.5-0.5-0.5-0.5-1.1-0.5 0.5-1.1 1.1-2.2 1.7-1.1 0.5-2.2 0.5-3.2 0.5s-2.7-0.5-3.2-1.1c-1.1-1.1-1.1-1.7-1.1-3.2 0-1.7 0.5-2.2 1.1-3.2 1.1-0.5 2.2-1.1 3.2-1.7l4.2 0.6z m-5.5 6.6c0.5 0.5 1.1 0.5 1.7 0.5 1.1 0 1.7 0 2.7-0.5 1.1-0.5 2.2-1.7 2.2-3.2v-1.7c-0.5 0-0.5 0.5-1.1 0.5h-3.4c-1.1 0-1.7 0.5-2.2 0.5-0.5 0.5-1.1 1.1-1.1 2.2 0.7 0.6 0.7 1.1 1.2 1.7zM571.9 629.5h2.7v2.7h-2.7v-2.7z m0 5.4h2.7V649.1h-2.7v-14.2zM577.8 634.9h2.2v2.7c0-0.5 0.5-1.1 1.7-1.7 0.5-0.5 1.7-1.1 2.7-1.1h0.5v2.7h-0.5-0.5c-1 0-2.2 0.5-2.7 1.1-0.5 0.5-1.1 1.7-1.1 2.7v8.1h-2.2l-0.1-14.5zM588.7 644.7c0 0.5 0.5 1.7 0.5 1.7 0.5 0.5 1.7 1 3.2 1 1.1 0 1.7 0 2.2-0.5 0.5-0.5 1.1-1.1 1.1-1.7 0-0.5-0.5-1.1-1.1-1.7-0.5 0-1.1-0.5-2.2-0.5l-2.2-0.5c-1.1-0.5-2.2-0.5-2.7-1-1.1-0.5-1.7-1.7-1.7-2.7 0-1.7 0.5-2.7 1.7-3.2 1.1-1.1 2.2-1.1 4.4-1.1s3.9 0.5 4.9 2.2c0.5 0.5 1 1.7 1 2.7h-2.2c0-0.5 0-1.1-0.5-1.7-0.5-0.5-1.7-1.1-2.7-1.1-1.1 0-1.7 0-2.2 0.5-0.5 0.5-0.5 0.5-0.5 1.7 0 1.1 0.5 1.1 1.1 1.7 0.5 0 1.1 0.5 1.7 0.5l1.7 0.5c1.7 0.5 2.7 1.1 3.9 1.1 1.1 0.5 1.7 1.7 1.7 2.7 0 1.1-0.5 2.2-1.7 3.2-1.1 1.1-2.7 1.7-4.9 1.7s-3.9-0.5-4.9-1.7c-1.1-1.1-1.7-2.2-1.7-3.9l2.1 0.1zM609.3 629.5h3.2l9.8 15.8v-15.8h2.7v20.1h-3.2l-10.3-15.8v15.8h-2.7l0.5-20.1zM637.7 635.4c1.1 0.5 1.7 1.1 2.2 1.7 0.5 0.5 0.5 1.7 1.1 2.7v3.2h-10.3c0 1.7 0.5 2.7 1.1 3.9 0.5 1.1 1.7 1.1 3.2 1.1 1.1 0 2.2-0.5 3.2-1.1 0.5-0.5 0.5-1.1 1.1-1.7h2.2c0 0.5-0.5 1.1-0.5 1.7-0.5 0.5-0.5 1.1-1.1 1.7-0.5 0.5-1.7 1.1-2.7 1.7H635c-1.7 0-3.2-0.5-4.9-2.2-1.1-1.1-1.7-3.2-1.7-5.4s0.5-4.4 1.7-5.4c1.1-1.7 2.7-2.2 4.9-2.2 1-0.2 1.5-0.2 2.7 0.3z m1 5.4c0-1.1-0.5-2.2-0.5-2.7-0.5-1.1-1.7-1.7-3.2-1.7-1.1 0-2.2 0.5-2.7 1.1-0.5 0.5-1.1 1.7-1.1 3.2l7.5 0.1zM645.3 634.9l2.7 11.5 2.7-11.5h2.7l2.7 11.5 2.7-11.5h2.2l-4.4 14.7H655l-2.7-11.5-2.7 11.5h-2.7l-4.4-14.7h2.8zM670.2 629.5h3.2l5.4 9.8 5.4-9.8h3.2l-7.6 12v8.1h-2.7v-8.1l-6.9-12zM697.9 636.5c1.1 1.1 2.2 3.2 2.2 5.4s-0.5 4.4-1.7 5.4c-1.1 1.7-2.7 2.2-4.9 2.2s-3.9-0.5-4.9-2.2c-1.1-1.1-1.7-3.2-1.7-5.4s0.5-4.4 1.7-6c1.1-1.7 2.7-2.2 4.9-2.2 1.7 0.6 3.4 1.7 4.4 2.8z m-1.5 9.8c0.5-1.1 1.1-2.7 1.1-4.4 0-1.1 0-2.7-0.5-3.2-0.5-1.1-1.7-2.2-3.9-2.2-1.7 0-2.7 0.5-3.2 1.7-0.5 1.1-1.1 2.7-1.1 4.4 0 1.7 0.5 2.7 1.1 3.9 0.5 1 1.7 1.7 3.2 1.7 1.6-0.3 2.7-0.8 3.3-1.9zM702.8 634.9h2.2v2.7c0-0.5 0.5-1.1 1.7-1.7 0.5-0.5 1.7-1.1 2.7-1.1h0.5v2.7h-0.5-0.5c-1 0-2.2 0.5-2.7 1.1-0.5 0.5-1.1 1.7-1.1 2.7v8.1h-2.2l-0.1-14.5zM712.1 629.5h2.2v11.5l6-6h3.2l-5.4 5.4 6 9.3h-3.2l-4.9-7.1-2.2 2.2v5.4h-2.2l0.5-20.7z" fill="#494949" p-id="2327"></path><path d="M534.3 660.4v2.2h-6.6v17.4h-3.2v-17.4H518v-2.2h16.3zM543.5 667.5c1.1 1.1 2.2 3.2 2.2 5.4s-0.5 4.4-1.7 5.4c-1.1 1.7-2.7 2.2-4.9 2.2s-3.9-0.5-4.9-2.2c-1.1-1.1-1.7-3.2-1.7-5.4s0.5-4.4 1.7-6c1.1-1.7 2.7-2.2 4.9-2.2 1.7 1.2 3.4 1.2 4.4 2.8z m-1 9.2c0.5-1.1 1.1-2.7 1.1-4.4 0-1.1 0-2.7-0.5-3.2-0.5-1.1-1.7-2.2-3.9-2.2-1.7 0-2.7 0.5-3.2 1.7-0.5 1.1-1.1 2.7-1.1 4.4s0.5 2.7 1.1 3.9c0.5 1.1 1.7 1.7 3.2 1.7 1.1 0.3 2.2-0.2 3.3-1.9zM548.4 660.4h2.2v11.5l6-6h3.2l-5.4 5.4 6 9.3h-3.2l-4.9-7.1-2.2 2.2v5.4h-2.2l0.5-20.7zM572.9 667.5c1.1 1.1 2.2 3.2 2.2 5.4s-0.5 4.4-1.7 5.4c-1.1 1.7-2.7 2.2-4.9 2.2s-3.9-0.5-4.9-2.2c-1.1-1.1-1.7-3.2-1.7-5.4s0.5-4.4 1.7-6c1.1-1.7 2.7-2.2 4.9-2.2 1.7 1.2 3.4 1.2 4.4 2.8z m-1.7 9.2c0.5-1.1 1.1-2.7 1.1-4.4 0-1.1 0-2.7-0.5-3.2-0.5-1.1-1.7-2.2-3.9-2.2-1.7 0-2.7 0.5-3.2 1.7-0.5 1.1-1.1 2.7-1.1 4.4s0.5 2.7 1.1 3.9c0.5 1.1 1.7 1.7 3.2 1.7 1.8 0.3 2.8-0.2 3.3-1.9zM587.1 665.9h2.7c-0.5 1.1-1.1 3.2-2.2 6.6-1.1 2.7-1.7 4.9-2.2 6-1.7 3.9-2.2 6-2.7 6.6-0.5 0.5-1.7 1.1-2.7 1.1h-1v-2.2h2.7l0.5-0.5s0-0.5 0.5-1.1c0.5-0.5 0.5-1.1 0.5-1.7l-5.4-14.7h2.7l3.9 12 2.7-12.1zM601.7 674c0 1.1 0.5 2.2 0.5 2.7 1.1 1.1 2.2 2.2 4.9 2.2 1.1 0 1.7 0 2.7-0.5 1.7-0.5 2.2-1.7 2.2-3.2 0-1.1-0.5-1.7-1.1-2.2-0.5-0.5-1.7-1.1-3.2-1.1l-2.7-0.5c-1.7-0.5-2.7-1.1-3.9-1.1-1.1-1.1-1.7-2.2-1.7-3.9s0.5-3.2 1.7-4.4c1.1-1.1 2.7-1.7 4.9-1.7s3.9 0.5 4.9 1.7c1.7 1.1 2.2 2.7 2.2 4.9h-1.7c0-1.1-0.5-1.7-1.1-2.7-0.5-1.1-2.2-1.7-4.4-1.7-1.7 0-2.7 0.5-3.2 1.1s-1.1 1.7-1.1 2.2c0 1.1 0.5 1.7 1.1 2.2 0.5 0.5 1.7 0.5 3.9 1.1l2.7 0.5c1.1 0.5 2.2 0.5 3.2 1.1 1.1 1.1 1.7 2.2 1.7 4.4s-0.5 3.9-2.2 4.9c-1.7 1.1-3.2 1.7-5.4 1.7s-4.4-0.5-5.4-1.7c-1.7-1.1-2.2-2.7-2.2-4.9l2.7-1.1zM618.1 660.4h2.7v2.7h-2.7v-2.7z m0 5.5h2.7V680.1h-2.7v-14.2zM624 665.9h2.2v2.2c0.5-1.1 1.7-1.7 2.2-1.7 0.5-0.5 1.7-0.5 2.7-0.5 2.2 0 3.9 0.5 4.4 2.2 0.5 0.5 0.5 2.2 0.5 3.2v9.3h-2.7v-9.3c0-1 0-1.7-0.5-2.2-0.5-1.1-1.1-1.1-2.2-1.1h-1.7c-0.6 0-1.1 0.5-1.7 1.1-0.5 0.5-0.5 1.1-0.5 1.7v9.8h-2.2l-0.5-14.7zM647.4 666.4c0.5 0.5 1.1 0.5 1.7 1.7v-1.7h2.2v13c0 1.7 0 3.2-0.5 4.4-1.1 2.2-2.7 2.7-5.4 2.7-1.7 0-2.7-0.5-3.9-1.1-1.1-0.5-1.7-1.7-1.7-3.2h2.7c0 0.5 0.5 1.1 0.5 1.7 0.5 0.5 1.7 0.5 2.7 0.5 1.7 0 3.2-0.5 3.9-2.2 0.5-0.5 0.5-2.2 0.5-4.4l-1.7 1.7c-0.5 0.5-1.7 0.5-2.7 0.5-1.7 0-2.7-0.5-4.4-1.7-1.7-1.1-1.7-2.7-1.7-5.4 0-2.2 0.5-4.4 1.7-5.4 1.1-1.7 2.7-2.2 4.4-2.2 0.1 0.6 1.1 0.6 1.7 1.1z m0.6 2.7c-0.5-1.1-1.7-1.1-2.7-1.1-1.7 0-2.7 0.5-3.9 2.2-0.5 1-0.5 2.2-0.5 3.2 0 1.7 0.5 2.7 1.1 3.9 0.5 1.1 1.7 1.1 2.7 1.1 1.7 0 2.7-0.5 3.9-2.2 0.5-1.1 0.5-2.2 0.5-3.2-0.1-1.7-0.6-2.8-1.1-3.9zM662.6 671.8c0.5 0 1.1-0.5 1.1-0.5v-1c0-1.1-0.5-1.7-1.1-1.7-0.5-0.5-1.7-0.5-2.7-0.5s-2.2 0.5-2.7 1.1c-0.5 0.5-0.5 1.1-0.5 1.7H655c0-1.7 0.5-3.2 1.7-3.9s2.2-1.1 3.9-1.1c1.7 0 3.2 0.5 4.4 1.1 1.1 0.5 1.7 1.7 1.7 3.2v8.6h1.5v1.7h-1.6c-1.1 0-1.7-0.5-1.7-1.1s-0.5-0.5-0.5-1.1c-0.5 0.5-1.1 1.1-2.2 1.7-1.1 0.5-2.2 0.5-3.2 0.5s-2.7-0.5-3.2-1.1c-1.1-1.1-1.1-1.7-1.1-3.2 0-1.6 0.5-2.2 1.1-3.2 1.1-1.1 2.2-1.1 3.2-1.7l3.6 0.5z m-4.8 6.6c0.5 0.5 1.1 0.5 1.7 0.5 1.1 0 1.7 0 2.7-0.5 1-0.5 2.2-1.7 2.2-3.2v-2.2c-0.5 0-0.5 0.5-1.1 0.5H660c-1.1 0-1.7 0.5-2.2 0.5-0.5 0.5-1.1 1.1-1.1 2.2-0.1 1 0.5 1.7 1.1 2.2zM670.2 665.9h2.2v2.2l1.7-1.7c1.1-0.5 1.7-0.5 2.7-0.5 1.7 0 3.2 0.5 4.4 1.7 1.1 1.1 1.7 3.2 1.7 5.4 0 3.2-1.1 5.4-2.7 6.6-1.1 1.1-2.2 1.1-3.9 1.1-1.1 0-2.2 0-2.7-0.5-0.5 0-1.1-0.5-1.7-1.7v7.1h-2.2l0.5-19.7z m9.3 11.3c0.5-1.1 1.1-2.2 1.1-4.4 0-1.1 0-2.2-0.5-2.7-0.5-1.7-1.7-2.2-3.9-2.2s-2.7 1.1-3.9 2.7c-0.5 1.1-0.5 2.2-0.5 3.9 0 1.1 0 2.2 0.5 2.7 0.5 1.7 1.7 2.2 3.9 2.2 1.6-0.5 2.2-1 3.3-2.2zM696.4 667.5c1.1 1.1 2.2 3.2 2.2 5.4s-0.5 4.4-1.7 5.4c-1.1 1.7-2.7 2.2-4.9 2.2s-3.9-0.5-4.9-2.2c-1.1-1.1-1.7-3.2-1.7-5.4s0.5-4.4 1.7-6c1.1-1.7 2.7-2.2 4.9-2.2 1.7 1.2 3.2 1.2 4.4 2.8z m-1.7 9.2c0.5-1.1 1.1-2.7 1.1-4.4 0-1.1 0-2.7-0.5-3.2-0.5-1.1-1.7-2.2-3.9-2.2-1.7 0-2.7 0.5-3.2 1.7-0.5 1.1-1 2.7-1 4.4s0.5 2.7 1 3.9c0.5 1.1 1.7 1.7 3.2 1.7 1.7 0.3 2.8-0.2 3.3-1.9zM701.3 665.9h2.2v2.7c0-0.5 0.5-1.1 1.7-1.7 0.5-0.5 1.7-1.1 2.7-1.1h0.5v2.7h-0.5-0.5c-1.1 0-2.2 0.5-2.7 1.1-0.5 0.5-1.1 1.7-1.1 2.7v8.1h-2.3v-14.5zM719.7 666.4c1.1 0.5 1.7 1.1 2.2 1.7 0.5 0.5 0.5 1.7 1.1 2.7v3.2h-10.3c0 1.7 0.5 2.7 1.1 3.9 0.5 1.1 1.7 1.1 3.2 1.1 1.1 0 2.2-0.5 3.2-1.1 0.5-0.5 0.5-1.1 1.1-1.7h2.2c0 0.5-0.5 1.1-0.5 1.7s-0.5 1.1-1.1 1.7c-0.5 0.5-1.7 1.1-2.7 1.7H717c-1.7 0-3.2-0.5-4.9-2.2-1.7-1.7-1.7-3.2-1.7-5.4s0.5-4.4 1.7-5.4c1.1-1.7 2.7-2.2 4.9-2.2 0.5-0.2 1.7-0.2 2.7 0.3z m0.6 5.4c0-1.1-0.5-2.2-0.5-2.7-0.5-1.1-1.7-1.7-3.2-1.7-1.1 0-2.2 0.5-2.7 1.1-0.5 0.5-1.1 1.7-1.1 3.2l7.5 0.1z" fill="#494949" p-id="2328"></path><path d="M392.9 702.3c-8.1 0-15.8-1.7-23.4-4.9-13.6-6-23.9-17.4-28.8-31.5s-4.4-29.4 1.7-42.4c6-13.6 17.4-23.9 31.5-28.8 14.2-4.9 29.4-4.4 42.4 1.7 13.6 6 23.9 17.4 28.8 31.5 4.9 14.2 4.4 29.4-1.7 42.4-6 13.6-17.4 23.9-31.5 28.8-6 2.1-12.4 3.2-19 3.2z m0-102.2c-5.4 0-10.9 1.1-15.8 2.7-11.5 4.4-20.7 13-26.1 23.9-4.9 11.5-5.4 23.9-1.1 35.4 4.4 11.5 13 20.7 23.9 26.1 10.9 4.9 23.9 5.4 35.4 1.1 11.5-4.4 20.7-13 26.1-23.9 4.9-11.5 5.4-23.9 1.1-35.4-4.4-11.5-13-20.7-23.9-26.1-6.6-2.2-13-3.8-19.6-3.8z" fill="#FF8680" p-id="2329"></path><path d="M392.9 688.2c-16.9 0-32.6-10.3-39.1-27.2-3.9-10.3-3.2-21.8 1.1-31.5 4.9-10.3 13-17.9 23.4-21.8 21.8-8.1 45.7 3.2 53.3 24.5 8.1 21.8-3.2 45.7-24.5 53.3-4.4 2.1-9.3 2.7-14.2 2.7z m0-80c-4.4 0-8.7 0.5-13.6 2.2-9.8 3.9-17.4 10.9-21.8 20.1-4.4 9.3-4.9 19.6-1.1 29.4 7.1 20.1 29.4 29.9 49.5 22.8 20.1-7.1 29.9-29.4 22.8-49.5-5.3-15.7-20-25-35.8-25z" fill="#FF8680" p-id="2330"></path><path d="M527.8 587c-4.4-2.2-8.7-4.9-15.8-2.7-6.6 2.2-8.1 7.6-9.8 12-1.7 4.4-2.7 8.1-7.6 9.8-4.9 1.7-8.1 0-12.5-2.7-4.4-2.2-8.7-4.9-15.8-2.7-6.6 2.2-8.1 7.6-9.8 12-1.7 4.4-2.7 8.1-7.6 9.8-4.9 1.7-8.1 0-12-2.2 0.5 1.7 1 3.2 1.7 4.9 3.2 1.7 7.1 2.7 12 1.1 6.6-2.2 8.1-7.6 9.8-12 1.7-4.4 2.7-8.1 7.6-9.8 4.9-1.7 8.1 0 12.5 2.7 4.4 2.2 8.7 4.9 15.8 2.7 6.6-2.2 8.1-7.6 9.8-12s2.7-8.1 7.6-9.8c4.9-1.7 8.1 0 12.5 2.7 4.4 2.2 8.7 4.9 15.8 2.7l-1.1-3.2c-5.5 1.1-8.8-0.6-13.1-3.3zM533.2 570.7c-6.6 2.2-11.5-0.5-15.8-2.7-3.9-2.2-7.6-4.4-12.5-2.7-4.9 1.7-6 5.4-7.6 9.8-1.7 4.4-3.2 9.8-9.8 12-6.6 2.2-11.5-0.5-15.8-2.7-3.9-2.2-7.6-4.4-12.5-2.7-4.9 1.7-6 5.4-7.6 9.8-1.7 4.4-3.2 9.8-9.8 12-6.6 2.2-11.5-0.5-15.8-2.7-3.9-2.2-7.6-4.4-12.5-2.7l-1.1-3.2c6.6-2.2 11.5 0.5 15.8 2.7 3.9 2.2 7.6 4.4 12.5 2.7 4.9-1.7 6-5.4 7.6-9.8s3.2-9.8 9.8-12 11.5 0.5 15.8 2.7c3.9 2.2 7.6 4.4 12.5 2.7 4.9-1.7 6-5.4 7.6-9.8s3.2-9.8 9.8-12c6.6-2.2 11.5 0.5 15.8 2.7 3.9 2.2 7.6 4.4 12.5 2.7l1.1 3.2zM536.5 609.9c-4.4-2.2-8.7-4.9-15.8-2.7-6.6 2.2-8.1 7.6-9.8 12-1.7 4.4-2.7 8.1-7.6 9.8-4.9 1.7-8.1 0-12.5-2.7-4.4-2.2-8.7-4.9-15.8-2.7-6.6 2.2-8.1 7.6-9.8 12-1.7 4.4-2.7 8.1-7.6 9.8-4.9 1.7-8.1 0-12.5-2.7-0.5 0-1.1-0.5-1.1-0.5v4.4c4.4 2.2 8.7 4.9 14.7 2.2 6.6-2.2 8.1-7.6 9.8-12 1.7-4.4 2.7-8.1 7.6-9.8 4.9-1.7 8.1 0 12.5 2.7 4.4 2.2 8.7 4.9 15.8 2.7 6.6-2.2 8.1-7.6 9.8-12 1.7-4.4 2.7-8.1 7.6-9.8 4.9-1.7 8.1 0 12.5 2.7 4.4 2.2 8.7 4.9 15.8 2.7l-1.1-3.2c-4.9 1.4-8.7-0.8-12.5-2.9zM558.2 638.1c-6.6 2.2-11.5-0.5-15.8-2.7-3.9-2.2-7.6-4.4-12.5-2.7-4.9 1.7-6 5.4-7.6 9.8-1.7 4.4-3.2 9.8-9.8 12-6.6 2.2-11.5-0.5-15.8-2.7-3.9-2.2-7.6-4.4-12.5-2.7s-6 5.4-7.6 9.8c-1.7 4.4-3.2 9.8-9.8 12-6.6 2.2-11.5-0.5-15.8-2.7-3.9-2.2-7.6-4.4-12.5-2.7l-1.1-3.2c6.6-2.2 11.5 0.5 15.8 2.7 3.9 2.2 7.6 4.4 12.5 2.7 4.9-1.7 6-5.4 7.6-9.8 1.7-4.4 3.2-9.8 9.8-12 6.6-2.2 11.5 0.5 15.8 2.7 3.9 2.2 7.6 4.4 12.5 2.7 4.9-1.7 6-5.4 7.6-9.8 1.7-4.4 3.2-9.8 9.8-12 6.6-2.2 11.5 0.5 15.8 2.7 3.9 2.2 7.6 4.4 12.5 2.7l1.1 3.2z" fill="#FF8983" p-id="2331"></path><path d="M780.1 715.4l29.7 19.6c10.7-8.1 17.7-21.1 17.7-35.4v-6.8l-47.3-31.5v54.1z" fill="#2EA7E0" p-id="2332"></path><path d="M780.1 562.9v53.6l47.3 31.3V594.1z" fill="#E83828" p-id="2333"></path><path d="M827.4 495.2l-47.3-31.2v53.7l47.3 31.3z" fill="#2EA7E0" p-id="2334"></path><path d="M827.4 397.8l-47.3-31.5v54l47.3 31.4z" fill="#E83828" p-id="2335"></path><path d="M827.4 324.3c0-24.5-20.1-44.6-44.6-44.6h-2.7v41.3l47.3 31.3v-28z" fill="#2EA7E0" p-id="2336"></path></svg>