<?xml version="1.0" standalone="no"?><!DOCTYPE svg PUBLIC "-//W3C//DTD SVG 1.1//EN" "http://www.w3.org/Graphics/SVG/1.1/DTD/svg11.dtd"><svg t="1517359698874" class="icon" style="" viewBox="0 0 1024 1024" version="1.1" xmlns="http://www.w3.org/2000/svg" p-id="2013" xmlns:xlink="http://www.w3.org/1999/xlink" width="64" height="64"><defs><style type="text/css"></style></defs><path d="M627.94 474.05c-54.819 0-99.511-50.64-99.511-112.693v-37.618h199.022v37.618c0 62.214-44.692 112.693-99.511 112.693zM64.343 361.356v-37.618h199.022v37.618c0 62.054-44.692 112.693-99.511 112.693s-99.511-50.478-99.511-112.693zM495.408 73.336v225.387H305.71l49.836-225.387z" fill="#F3797D" p-id="2014"></path><path d="M668.291 73.336l49.836 225.387H528.429V73.336zM296.386 323.899h199.022v37.457c0 62.054-44.692 112.693-99.511 112.693s-99.511-50.64-99.511-112.693v-37.457zM760.311 323.899h199.022v37.457c0 62.054-44.692 112.693-99.511 112.693-54.82 0-99.511-50.64-99.511-112.693v-37.457z" fill="#3A5CAC" p-id="2015"></path><path d="M938.917 298.723h-185.84L703.241 73.336h136.004z" fill="#F3797D" p-id="2016"></path><path d="M184.27 73.336h136.165l-49.836 225.387H84.759zM97.203 495.368c10.771 2.411 21.864 3.697 33.117 3.697 54.176 0 101.194-13.737 132.628-75.236 30.223 45.656 78.451 75.236 132.628 75.236s102.405-29.58 132.628-75.236c22.934 50.221 59.088 67.269 99.511 71.378v454.471H97.203v-454.31z" fill="#3A5CAC" p-id="2017"></path><path d="M909.786 950H644.37V495.368c40.512-9.324 75.558-35.367 99.511-71.378 30.223 45.656 78.451 75.236 132.628 75.236 11.414 0 22.346-1.286 33.117-3.697V950h0.16z" fill="#F3797D" p-id="2018"></path><path d="M793.685 686.995c0 20.738-14.79 37.618-33.117 37.618-18.327 0-33.117-16.88-33.117-37.618 0-20.738 14.79-37.618 33.117-37.618 18.326 0 33.117 16.88 33.117 37.618z" fill="#FFFFFF" p-id="2019"></path></svg>